<svg xmlns="http://www.w3.org/2000/svg" width="1200" height="800" viewBox="0 0 1200 800">
  <defs>
    <linearGradient id="g" x1="0" y1="1" x2="1" y2="0">
      <stop offset="0" stop-color="#cfe3e0"/>
      <stop offset="0.55" stop-color="#a8cfd0"/>
      <stop offset="1" stop-color="#7fb7be"/>
    </linearGradient>
    <radialGradient id="r" cx="65%" cy="35%" r="75%">
      <stop offset="0" stop-color="#ffffff" stop-opacity="0.55"/>
      <stop offset="1" stop-color="#ffffff" stop-opacity="0"/>
    </radialGradient>
  </defs>
  <rect width="1200" height="800" fill="url(#g)"/>
  <circle cx="820" cy="290" r="380" fill="url(#r)"/>
  <g opacity="0.14" fill="#0f4c55">
    <path d="M210 170c70 25 140 90 170 165 45 114 126 186 246 214 126 29 214 98 252 209 55-98 63-201 20-302-54-127-168-211-315-231-175-24-293-115-373-255z"/>
  </g>
  <g transform="translate(170,120)">
    <rect x="0" y="0" width="500" height="560" rx="26" fill="#ffffff" opacity="0.32"/>
    <rect x="70" y="90" width="360" height="330" rx="22" fill="#ffffff" opacity="0.35"/>
    <rect x="200" y="55" width="120" height="38" rx="12" fill="#ffffff" opacity="0.45"/>
    <text x="50" y="520" font-family="Montserrat, Arial, sans-serif" font-size="44" font-weight="800" fill="#0f4c55" opacity="0.85">PRODUCT</text>
    <text x="50" y="565" font-family="Montserrat, Arial, sans-serif" font-size="26" font-weight="700" fill="#0f4c55" opacity="0.70">Placeholder image</text>
  </g>
</svg>
