<svg xmlns="http://www.w3.org/2000/svg" width="1200" height="800" viewBox="0 0 1200 800">
  <defs>
    <linearGradient id="g" x1="0" y1="1" x2="1" y2="0">
      <stop offset="0" stop-color="#f6d6d8"/>
      <stop offset="0.55" stop-color="#f0b2b8"/>
      <stop offset="1" stop-color="#e7909a"/>
    </linearGradient>
    <radialGradient id="r" cx="70%" cy="30%" r="65%">
      <stop offset="0" stop-color="#ffffff" stop-opacity="0.55"/>
      <stop offset="1" stop-color="#ffffff" stop-opacity="0"/>
    </radialGradient>
  </defs>
  <rect width="1200" height="800" fill="url(#g)"/>
  <circle cx="860" cy="240" r="340" fill="url(#r)"/>
  <g opacity="0.16" fill="#7a1e2a">
    <path d="M250 600c110-50 260-35 360 35 82 57 179 70 290 42-52 79-132 126-245 138-121 13-220-22-310-92-64-50-124-82-210-87 38-18 73-28 115-36z"/>
  </g>
  <g transform="translate(170,110)">
    <rect x="0" y="0" width="480" height="580" rx="26" fill="#ffffff" opacity="0.33"/>
    <rect x="120" y="90" width="240" height="420" rx="36" fill="#ffffff" opacity="0.38"/>
    <rect x="160" y="60" width="160" height="34" rx="12" fill="#ffffff" opacity="0.45"/>
    <text x="40" y="535" font-family="Montserrat, Arial, sans-serif" font-size="44" font-weight="800" fill="#7a1e2a" opacity="0.85">PRODUCT</text>
    <text x="40" y="580" font-family="Montserrat, Arial, sans-serif" font-size="26" font-weight="700" fill="#7a1e2a" opacity="0.70">Placeholder image</text>
  </g>
</svg>
