<svg xmlns="http://www.w3.org/2000/svg" width="1200" height="800" viewBox="0 0 1200 800">
  <defs>
    <linearGradient id="g" x1="0" y1="0" x2="1" y2="1">
      <stop offset="0" stop-color="#f2d7c9"/>
      <stop offset="0.55" stop-color="#f1bfa8"/>
      <stop offset="1" stop-color="#ee9b87"/>
    </linearGradient>
    <radialGradient id="r" cx="45%" cy="40%" r="70%">
      <stop offset="0" stop-color="#ffffff" stop-opacity="0.55"/>
      <stop offset="1" stop-color="#ffffff" stop-opacity="0"/>
    </radialGradient>
  </defs>
  <rect width="1200" height="800" fill="url(#g)"/>
  <circle cx="540" cy="300" r="360" fill="url(#r)"/>
  <g opacity="0.15" fill="#6d2a21">
    <path d="M980 650c-124-96-280-124-420-74-132 46-254 42-370-12 35 91 98 160 190 206 123 62 279 58 430-10 80-36 135-82 170-110z"/>
  </g>
  <g transform="translate(150,120)">
    <rect x="0" y="0" width="520" height="560" rx="26" fill="#ffffff" opacity="0.33"/>
    <rect x="90" y="110" width="340" height="290" rx="20" fill="#ffffff" opacity="0.36"/>
    <circle cx="260" cy="310" r="110" fill="#ffffff" opacity="0.25"/>
    <text x="56" y="520" font-family="Montserrat, Arial, sans-serif" font-size="44" font-weight="800" fill="#6d2a21" opacity="0.85">PRODUCT</text>
    <text x="56" y="565" font-family="Montserrat, Arial, sans-serif" font-size="26" font-weight="700" fill="#6d2a21" opacity="0.70">Placeholder image</text>
  </g>
</svg>
