<svg xmlns="http://www.w3.org/2000/svg" width="1600" height="900" viewBox="0 0 1600 900">
  <defs>
    <linearGradient id="g" x1="0" y1="0" x2="1" y2="1">
      <stop offset="0" stop-color="#f7c7cc"/>
      <stop offset="0.55" stop-color="#f0a7b0"/>
      <stop offset="1" stop-color="#e57c89"/>
    </linearGradient>
    <radialGradient id="r" cx="30%" cy="35%" r="75%">
      <stop offset="0" stop-color="#ffffff" stop-opacity="0.55"/>
      <stop offset="1" stop-color="#ffffff" stop-opacity="0"/>
    </radialGradient>
  </defs>
  <rect width="1600" height="900" fill="url(#g)"/>
  <circle cx="420" cy="330" r="520" fill="url(#r)"/>
  <g opacity="0.18" fill="#6b1d27">
    <path d="M1120 130c-130 70-170 230-55 330 132 114 82 272-54 340-100 50-152 112-165 200 120-108 274-118 416-45 138 71 210 188 215 348 70-122 72-256 8-386-72-146-54-262 36-376 112-142 80-318-98-430-122-76-254-74-303 19z"/>
  </g>
  <text x="80" y="820" font-family="Montserrat, Arial, sans-serif" font-size="46" font-weight="800" fill="#6b1d27" opacity="0.65">INTRODUCTION IMAGE</text>
</svg>
